<svg width="537" height="147" viewBox="0 0 537 147" fill="none" xmlns="http://www.w3.org/2000/svg">
<mask id="mask0_318_397" style="mask-type:luminance" maskUnits="userSpaceOnUse" x="13" y="86" width="86" height="46">
<path d="M13.7305 86.0889H98.0491V131.553H13.7305V86.0889Z" fill="white"/>
</mask>
<g mask="url(#mask0_318_397)">
<path d="M96.9554 90.0008C96.9554 93.2453 96.561 96.4897 95.8038 99.6448C95.7144 99.9497 95.6829 100.286 95.5935 100.586C95.5935 100.618 95.5935 100.618 95.5935 100.618C93.774 107.501 90.1931 113.995 84.7927 119.39C80.486 123.697 75.5116 126.852 70.1743 128.855C70.1743 128.855 70.1427 128.855 70.1427 128.887C65.4102 130.675 60.3779 131.584 55.3403 131.584C45.0601 131.584 34.8062 127.825 26.8029 120.242C26.4979 119.969 26.2245 119.664 25.9195 119.39C25.646 119.09 25.3463 118.817 25.0729 118.512C17.5218 110.503 13.7305 100.255 13.7305 89.9693C13.7305 88.8808 13.7883 87.7555 13.8514 86.667C15.4552 88.9071 17.2746 91.063 19.2781 93.0665C25.8616 99.6448 33.8071 104.046 42.2416 106.291C42.2679 106.291 42.2679 106.318 42.2994 106.318C44.9707 107.017 47.6683 107.501 50.3974 107.774C50.9758 107.837 51.549 107.869 52.1274 107.895C53.1896 107.958 54.2203 107.99 55.2825 107.99C55.314 107.99 55.314 107.99 55.3403 107.99C58.2219 107.99 61.1035 107.743 63.9588 107.259C66.8089 106.775 69.6274 106.018 72.3881 105.045C72.7246 104.924 73.0874 104.803 73.4187 104.682C79.9392 102.195 86.0652 98.3144 91.3447 93.0665C93.3481 91.063 95.1675 88.9071 96.7766 86.667C96.8029 87.1192 96.866 87.603 96.866 88.092C96.9238 88.7283 96.9554 89.3646 96.9554 90.0008Z" fill="#FF4C00"/>
</g>
<mask id="mask1_318_397" style="mask-type:luminance" maskUnits="userSpaceOnUse" x="45" y="15" width="85" height="46">
<path d="M45.5488 15.4473H129.836V60.5119H45.5488V15.4473Z" fill="white"/>
</mask>
<g mask="url(#mask1_318_397)">
<path d="M129.868 57.0308C129.868 58.1245 129.805 59.2446 129.747 60.3383C128.138 58.093 126.318 55.9423 124.315 53.9389C117.731 47.3553 109.786 42.9593 101.357 40.7139C101.325 40.7139 101.325 40.6824 101.293 40.6824C98.1069 39.8358 94.8309 39.3205 91.5602 39.1049C90.4664 39.047 89.3727 39.0155 88.2842 39.0155C87.5217 39.0155 86.7329 39.047 85.9757 39.0786C84.9766 39.1364 83.9775 39.1995 82.9732 39.3205C82.3054 39.3783 81.6375 39.4677 80.9697 39.5623C80.6384 39.6202 80.3072 39.6517 79.9706 39.7148C79.8181 39.7411 79.6656 39.7411 79.5184 39.7727C79.4869 39.7727 79.4553 39.7727 79.4238 39.8042C79.2713 39.8358 79.124 39.8621 78.9715 39.8936C78.635 39.9567 78.3037 40.0146 77.9672 40.0777C77.6359 40.1355 77.3046 40.2302 76.9681 40.288C76.784 40.3196 76.6368 40.3827 76.4843 40.409C76.3896 40.4405 76.3003 40.4405 76.2424 40.4721C76.1478 40.5036 76.0899 40.5036 76.0005 40.5299C75.664 40.6245 75.3327 40.6824 74.9962 40.777C74.6018 40.898 74.1759 40.9874 73.7815 41.1083C73.7552 41.1399 73.6921 41.1399 73.6605 41.1399C73.6342 41.1714 73.6027 41.1714 73.5711 41.1714C73.5396 41.1714 73.5396 41.1714 73.5133 41.1977H73.4817C73.4186 41.2293 73.3293 41.2293 73.2662 41.2608C73.2399 41.2608 73.2083 41.2924 73.1768 41.2924C73.1452 41.2924 73.1189 41.3187 73.0874 41.3187C72.9033 41.3818 72.693 41.4396 72.5089 41.5027C72.3302 41.5605 72.1777 41.6236 71.9936 41.6867C71.9621 41.6867 71.9358 41.713 71.9042 41.713C71.8148 41.7446 71.7202 41.7761 71.6623 41.8077C71.5677 41.834 71.4783 41.8655 71.4204 41.8971C71.3258 41.9286 71.268 41.9549 71.1733 41.9865C70.842 42.1074 70.537 42.2284 70.2373 42.323C63.7116 44.8102 57.5856 48.691 52.3377 53.9389C50.3395 55.9423 48.5201 58.093 46.911 60.3383C46.8794 59.8809 46.8479 59.3971 46.8216 58.9449C46.79 58.3033 46.79 57.6986 46.79 57.0624C46.79 56.6049 46.8216 56.1842 46.8216 55.7267C46.911 52.8767 47.3054 50.0266 47.9732 47.2344C48.031 46.9609 48.0941 46.6875 48.152 46.4141V46.3878C49.9714 39.4992 53.5524 33.0104 58.9527 27.61C63.2594 23.3033 68.2338 20.1483 73.5711 18.1501C78.3616 16.3254 83.4307 15.4473 88.4945 15.4473C98.7169 15.4473 108.908 19.2386 116.916 26.7897C117.216 27.0631 117.489 27.3365 117.794 27.6415C118.099 27.915 118.373 28.22 118.641 28.5197C126.076 36.5598 129.868 46.7822 129.868 57.0308Z" fill="#FF4C00"/>
</g>
<mask id="mask2_318_397" style="mask-type:luminance" maskUnits="userSpaceOnUse" x="13" y="15" width="47" height="85">
<path d="M13.7305 15.4473H59.0107V99.5503H13.7305V15.4473Z" fill="white"/>
</mask>
<g mask="url(#mask2_318_397)">
<path d="M52.2484 93.093C54.2519 95.0965 56.4026 96.9159 58.6479 98.5249C57.5594 98.6143 56.4657 98.6459 55.3719 98.6459C51.7962 98.6459 48.2152 98.1937 44.7552 97.2787C44.7289 97.2787 44.7289 97.2787 44.7289 97.2787C37.8404 95.4593 31.3515 91.8836 25.9511 86.4832C21.6445 82.1765 18.4894 77.2021 16.4597 71.8648C14.6665 67.1007 13.7568 62.0684 13.7568 57.0308C13.7568 46.7506 17.5219 36.5282 25.1045 28.5197C25.3779 28.22 25.6777 27.9465 25.9511 27.6415C26.2245 27.3365 26.5295 27.0631 26.8293 26.7897C34.8378 19.2386 45.0917 15.4473 55.3719 15.4473C56.4657 15.4473 57.5594 15.5104 58.6479 15.5682C58.5901 15.5998 58.5585 15.6313 58.4954 15.6892C56.3132 17.2667 54.2203 19.0598 52.2484 21.0002C45.6649 27.5784 41.2373 35.5554 39.0235 43.9584C39.0235 43.9899 38.992 43.9899 38.992 44.0215C37.8719 48.2966 37.2935 52.6663 37.2935 57.0624C37.2935 63.1884 38.3872 69.346 40.601 75.1723C43.0883 81.7191 46.969 87.8504 52.2484 93.093Z" fill="#FF4C00"/>
</g>
<mask id="mask3_318_397" style="mask-type:luminance" maskUnits="userSpaceOnUse" x="84" y="48" width="46" height="84">
<path d="M84.5879 48.3965H129.837V131.553H84.5879V48.3965Z" fill="white"/>
</mask>
<g mask="url(#mask3_318_397)">
<path d="M129.869 90.0012C129.869 100.287 126.104 110.504 118.521 118.512C118.248 118.817 117.948 119.091 117.674 119.39C117.369 119.695 117.096 119.969 116.796 120.242C108.788 127.793 98.5337 131.585 88.2851 131.585C87.1913 131.585 86.0713 131.527 84.9775 131.464C87.2229 129.855 89.3736 128.035 91.377 126.037C97.9606 119.454 102.357 111.508 104.602 103.074C104.602 103.042 104.633 103.042 104.633 103.016C105.054 101.407 105.391 99.7976 105.664 98.1623C105.843 97.0685 105.964 96.0063 106.085 94.9178C106.237 93.2772 106.332 91.6418 106.332 90.0012C106.332 83.8436 105.238 77.7175 103.024 71.8965C101.778 68.6205 100.201 65.4654 98.2603 62.4629C96.3199 59.4603 94.0483 56.605 91.4349 53.9968C89.4367 51.9671 87.2807 50.1792 85.0091 48.5702C85.4613 48.5386 85.9451 48.5071 86.4341 48.4808C87.0388 48.4492 87.6751 48.4492 88.3114 48.4492C89.1948 48.4492 90.1045 48.4808 91.0142 48.5386C93.6802 48.7227 96.3199 49.1486 98.9597 49.8427H98.9912C105.874 51.6621 112.337 55.2431 117.764 60.6435C122.07 64.9501 125.225 69.9246 127.26 75.2619C128.959 79.9313 129.869 84.9689 129.869 90.0012Z" fill="#FF4C00"/>
</g>
<mask id="mask4_318_397" style="mask-type:luminance" maskUnits="userSpaceOnUse" x="153" y="39" width="379" height="69">
<path d="M531.269 39H153V107.654H531.269V39Z" fill="white"/>
</mask>
<g mask="url(#mask4_318_397)">
<path d="M184.27 77.6465V54.9512H194.745V96.0509H185.175L167.17 71.105V96.0509H156.695V54.9512H168.516L184.27 77.6465Z" fill="black"/>
<path d="M234.313 96.0509H201.501V54.9512H233.367V64.5215H212.586V70.5371H231.327V80.0023H212.586V86.4175H234.313V96.0509Z" fill="black"/>
<path d="M263.353 75.1645L275.195 96.0509H262.175L255.255 82.6525L248.377 96.0509H235.378L247.199 75.1645L235.546 54.9512H248.608L255.318 67.8869L261.964 54.9512H274.963L263.353 75.1645Z" fill="black"/>
<path d="M277.761 80.1705V54.9512H289.035V78.7613C289.035 81.4694 289.671 83.5044 290.949 84.861C292.221 86.2072 294.004 86.8803 296.291 86.8803C298.505 86.8803 300.267 86.2177 301.571 84.8821C302.885 83.5517 303.548 81.5114 303.548 78.7613V54.9512H314.822V80.1705C314.822 83.5517 314.107 86.4911 312.677 88.9836C311.246 91.4814 309.148 93.4217 306.388 94.8099C303.637 96.1982 300.272 96.8923 296.291 96.8923C292.306 96.8923 288.935 96.1982 286.174 94.8099C283.424 93.4217 281.336 91.4814 279.906 88.9836C278.476 86.4911 277.761 83.5517 277.761 80.1705Z" fill="black"/>
<path d="M318.568 82.021H329.948C330.168 83.1884 330.563 84.1822 331.125 85.0078C331.683 85.8386 332.566 86.4591 333.776 86.8798C334.98 87.29 336.615 87.4898 338.677 87.4898C340.78 87.4898 342.399 87.3215 343.535 86.985C344.682 86.6484 345.491 86.2225 345.954 85.7019C346.427 85.1708 346.669 84.6397 346.669 84.1034C346.669 83.5144 346.47 82.9781 346.08 82.4838C345.686 81.9947 344.803 81.5162 343.43 81.0535C342.052 80.5802 339.907 80.1175 336.994 79.6653C332.366 78.9081 328.77 77.9352 326.204 76.7416C323.637 75.5374 321.834 74.0913 320.798 72.4087C319.757 70.7154 319.241 68.7803 319.241 66.6034C319.241 64.2791 319.878 62.1653 321.155 60.2722C322.428 58.3792 324.4 56.8806 327.066 55.771C329.727 54.6668 333.166 54.1094 337.372 54.1094C341.774 54.1094 345.365 54.7404 348.142 56.0024C350.918 57.2539 353.006 58.9787 354.41 61.1767C355.808 63.3642 356.629 65.8882 356.871 68.7488H345.597C345.37 67.0977 344.703 65.8146 343.598 64.8996C342.489 63.9742 340.512 63.5114 337.667 63.5114C334.848 63.5114 332.919 63.8637 331.883 64.5631C330.857 65.252 330.347 66.0092 330.347 66.8347C330.347 67.3974 330.568 67.9443 331.02 68.4754C331.467 68.9959 332.43 69.5008 333.902 69.9898C335.385 70.4683 337.651 70.9521 340.696 71.4411C345.081 72.0879 348.52 72.9976 351.002 74.1755C353.484 75.3534 355.235 76.7942 356.261 78.4874C357.297 80.1701 357.817 82.142 357.817 84.3978C357.817 86.7273 357.165 88.8359 355.861 90.729C354.567 92.622 352.543 94.1259 349.782 95.2302C347.032 96.3344 343.441 96.8918 339.013 96.8918C334.286 96.8918 330.463 96.2713 327.55 95.0409C324.647 93.7946 322.481 92.0541 321.05 89.8245C319.62 87.595 318.789 84.9973 318.568 82.021Z" fill="black"/>
<path d="M393.896 54.9512V64.5215H373.683V71.0419H391.877V80.6333H373.683V96.0509H362.43V54.9512H393.896Z" fill="black"/>
<path d="M427.558 96.0509H398.511V54.9512H409.764V86.0179H427.558V96.0509Z" fill="black"/>
<path d="M449.392 96.8918C445.112 96.8918 441.425 96.0715 438.328 94.4309C435.226 92.7797 432.844 90.445 431.177 87.4267C429.505 84.3978 428.674 80.7958 428.674 76.6154V74.3648C428.674 70.2001 429.505 66.6139 431.177 63.5956C432.844 60.5667 435.226 58.232 438.328 56.5913C441.425 54.9402 445.112 54.1094 449.392 54.1094C453.709 54.1094 457.406 54.9402 460.477 56.5913C463.558 58.232 465.935 60.5667 467.607 63.5956C469.274 66.6139 470.11 70.2001 470.11 74.3648V76.6154C470.11 80.7958 469.274 84.3978 467.607 87.4267C465.935 90.445 463.558 92.7797 460.477 94.4309C457.406 96.0715 453.709 96.8918 449.392 96.8918ZM449.392 87.0481C452.168 87.0481 454.409 86.1384 456.123 84.3137C457.832 82.4943 458.689 79.8335 458.689 76.3419V74.6593C458.689 71.1677 457.832 68.5122 456.123 66.6875C454.409 64.8681 452.168 63.9531 449.392 63.9531C446.616 63.9531 444.37 64.8681 442.661 66.6875C440.947 68.5122 440.095 71.1677 440.095 74.6593V76.3419C440.095 79.8335 440.947 82.4943 442.661 84.3137C444.37 86.1384 446.616 87.0481 449.392 87.0481Z" fill="black"/>
<path d="M510.921 81.075L517.063 54.9512H528.548L517.905 96.0509H505.747L499.5 74.828L493.19 96.0509H481.033L470.39 54.9512H481.874L488.016 81.075L496.219 54.9512H502.697L510.921 81.075Z" fill="black"/>
</g>
</svg>
