<svg width="512" height="512" viewBox="0 0 512 512" fill="none" xmlns="http://www.w3.org/2000/svg">
<mask id="mask0_319_546" style="mask-type:luminance" maskUnits="userSpaceOnUse" x="0" y="311" width="372" height="201">
<path d="M0 311.513H371.825V512H0V311.513Z" fill="white"/>
</mask>
<g mask="url(#mask0_319_546)">
<path d="M367.002 328.764C367.002 343.071 365.263 357.378 361.924 371.291C361.529 372.636 361.39 374.12 360.996 375.442C360.996 375.581 360.996 375.581 360.996 375.581C352.973 405.935 337.182 434.573 313.367 458.364C294.376 477.355 272.44 491.268 248.904 500.103C248.904 500.103 248.765 500.103 248.765 500.242C227.895 508.126 205.704 512.138 183.489 512.138C138.156 512.138 92.9389 495.558 57.6462 462.12C56.3013 460.915 55.0955 459.57 53.7506 458.364C52.5448 457.042 51.2231 455.836 50.0173 454.491C16.7188 419.175 0 373.981 0 328.625C0 323.825 0.255072 318.862 0.533332 314.062C7.60578 323.941 15.6289 333.448 24.4637 342.283C53.4955 371.291 88.5331 390.7 125.727 400.602C125.843 400.602 125.843 400.718 125.982 400.718C137.762 403.802 149.658 405.935 161.692 407.141C164.243 407.419 166.771 407.558 169.321 407.674C174.005 407.952 178.55 408.091 183.234 408.091C183.373 408.091 183.373 408.091 183.489 408.091C196.197 408.091 208.904 407.002 221.495 404.868C234.063 402.735 246.492 399.396 258.666 395.106C260.15 394.573 261.75 394.039 263.211 393.506C291.964 382.538 318.979 365.425 342.26 342.283C351.095 333.448 359.118 323.941 366.214 314.062C366.329 316.057 366.608 318.19 366.608 320.347C366.863 323.152 367.002 325.958 367.002 328.764Z" fill="#FF4C00"/>
</g>
<mask id="mask1_319_546" style="mask-type:luminance" maskUnits="userSpaceOnUse" x="140" y="0" width="372" height="199">
<path d="M140.312 0H511.997V198.725H140.312V0Z" fill="white"/>
</mask>
<g mask="url(#mask1_319_546)">
<path d="M512.138 183.374C512.138 188.197 511.86 193.136 511.604 197.959C504.509 188.058 496.486 178.574 487.651 169.739C458.619 140.707 423.582 121.322 386.411 111.42C386.271 111.42 386.271 111.281 386.132 111.281C372.08 107.548 357.634 105.275 343.211 104.325C338.388 104.069 333.564 103.93 328.764 103.93C325.402 103.93 321.924 104.069 318.585 104.209C314.179 104.464 309.773 104.742 305.344 105.275C302.399 105.53 299.454 105.925 296.509 106.342C295.049 106.597 293.588 106.736 292.104 107.014C291.431 107.13 290.759 107.13 290.109 107.269C289.97 107.269 289.831 107.269 289.692 107.409C289.02 107.548 288.37 107.664 287.698 107.803C286.214 108.081 284.753 108.336 283.269 108.614C281.808 108.869 280.347 109.287 278.863 109.542C278.051 109.681 277.402 109.959 276.73 110.075C276.312 110.214 275.918 110.214 275.663 110.354C275.246 110.493 274.991 110.493 274.596 110.609C273.112 111.026 271.651 111.281 270.167 111.698C268.428 112.232 266.55 112.626 264.811 113.159C264.695 113.298 264.417 113.298 264.278 113.298C264.162 113.438 264.023 113.438 263.883 113.438C263.744 113.438 263.744 113.438 263.628 113.554H263.489C263.211 113.693 262.817 113.693 262.538 113.832C262.423 113.832 262.283 113.971 262.144 113.971C262.005 113.971 261.889 114.087 261.75 114.087C260.938 114.365 260.011 114.62 259.199 114.898C258.411 115.154 257.738 115.432 256.927 115.71C256.788 115.71 256.672 115.826 256.533 115.826C256.138 115.965 255.721 116.104 255.466 116.243C255.049 116.359 254.654 116.498 254.399 116.638C253.982 116.777 253.727 116.893 253.31 117.032C251.849 117.565 250.504 118.098 249.182 118.516C220.405 129.484 193.391 146.597 170.249 169.739C161.437 178.574 153.414 188.058 146.318 197.959C146.179 195.942 146.04 193.809 145.924 191.814C145.785 188.985 145.785 186.319 145.785 183.513C145.785 181.496 145.924 179.64 145.924 177.623C146.318 165.055 148.058 152.487 151.003 140.174C151.258 138.968 151.536 137.762 151.791 136.556V136.44C159.814 106.064 175.605 77.4492 199.42 53.6347C218.411 34.6435 240.347 20.7304 263.883 11.9188C285.008 3.87246 307.362 0 329.692 0C374.77 0 419.709 16.7188 455.025 50.0174C456.347 51.2232 457.552 52.429 458.897 53.7739C460.242 54.9797 461.448 56.3246 462.631 57.6463C495.419 93.1014 512.138 138.18 512.138 183.374Z" fill="#FF4C00"/>
</g>
<mask id="mask2_319_546" style="mask-type:luminance" maskUnits="userSpaceOnUse" x="0" y="0" width="200" height="371">
<path d="M0 0H199.675V370.875H0V0Z" fill="white"/>
</mask>
<g mask="url(#mask2_319_546)">
<path d="M169.855 342.4C178.69 351.235 188.174 359.258 198.075 366.353C193.275 366.748 188.452 366.887 183.629 366.887C167.861 366.887 152.069 364.893 136.812 360.858C136.696 360.858 136.696 360.858 136.696 360.858C106.319 352.835 77.7044 337.066 53.89 313.252C34.8987 294.261 20.9857 272.324 12.035 248.788C4.1278 227.78 0.116211 205.588 0.116211 183.374C0.116211 138.04 16.7191 92.9623 50.1567 57.6463C51.3625 56.3246 52.6842 55.1188 53.89 53.7739C55.0958 52.429 56.4407 51.2232 57.7624 50.0174C93.0783 16.7188 138.296 0 183.629 0C188.452 0 193.275 0.278259 198.075 0.533333C197.82 0.672466 197.681 0.811592 197.403 1.06667C187.779 8.02318 178.551 15.9304 169.855 24.4869C140.823 53.4956 121.299 88.6724 111.536 125.727C111.536 125.867 111.397 125.867 111.397 126.006C106.458 144.858 103.907 164.127 103.907 183.513C103.907 210.527 108.73 237.681 118.493 263.374C129.461 292.243 146.574 319.281 169.855 342.4Z" fill="#FF4C00"/>
</g>
<mask id="mask3_319_546" style="mask-type:luminance" maskUnits="userSpaceOnUse" x="312" y="145" width="200" height="367">
<path d="M312.464 145.298H512V512H312.464V145.298Z" fill="white"/>
</mask>
<g mask="url(#mask3_319_546)">
<path d="M512.142 328.765C512.142 374.122 495.539 419.177 462.101 454.493C460.895 455.838 459.574 457.044 458.368 458.365C457.023 459.71 455.817 460.916 454.495 462.122C419.179 495.42 373.962 512.139 328.768 512.139C323.945 512.139 319.006 511.884 314.183 511.606C324.084 504.51 333.568 496.487 342.403 487.675C371.435 458.644 390.82 423.606 400.722 386.412C400.722 386.273 400.861 386.273 400.861 386.157C402.716 379.061 404.2 371.965 405.406 364.754C406.194 359.931 406.727 355.247 407.261 350.447C407.933 343.212 408.35 336 408.35 328.765C408.35 301.612 403.527 274.597 393.765 248.928C388.269 234.481 381.313 220.568 372.756 207.328C364.2 194.087 354.183 181.496 342.658 169.995C333.846 161.044 324.339 153.16 314.322 146.064C316.316 145.925 318.449 145.786 320.606 145.67C323.272 145.531 326.078 145.531 328.884 145.531C332.78 145.531 336.791 145.67 340.803 145.925C352.559 146.737 364.2 148.615 375.84 151.676H375.98C406.333 159.699 434.832 175.49 458.762 199.305C477.753 218.296 491.666 240.232 500.64 263.768C508.13 284.36 512.142 306.574 512.142 328.765Z" fill="#FF4C00"/>
</g>
</svg>
